# Blender v2.83.0 OBJ File: ''
# www.blender.org
mtllib Z-Saber.mtl
o Mesh_0154
v -10.156300 -10.156344 141.406296
v 0.000000 -14.453146 141.406296
v 10.156300 -10.156344 141.406296
v 21.875000 0.000044 -135.937500
v 15.234400 -15.234356 -135.937500
v 0.000000 0.000058 -178.515594
v 0.000000 -21.874954 -135.937500
v -15.234400 -15.234356 -135.937500
v -21.875000 0.000044 -135.937500
v 10.156300 10.156156 141.406296
v 0.000000 14.843656 141.406296
v -10.156300 10.156156 141.406296
v -15.234400 15.234444 -135.937500
v 0.000000 21.875046 -135.937500
v 15.234400 15.234444 -135.937500
v 14.453100 -0.000046 141.406296
v 21.875000 -21.875046 134.765594
v 30.859400 -0.000044 134.765594
v 21.875000 -21.875034 101.171898
v 23.437500 -0.000030 94.921898
v 16.406300 -16.406330 94.921898
v 16.406300 -16.406166 -99.609398
v 23.437500 0.000032 -99.609398
v 24.609400 -24.609365 -101.171913
v 34.765598 0.000032 -101.171898
v 24.609400 -24.609354 -134.765594
v 34.765598 0.000044 -134.765594
v 0.000000 -30.859446 134.765594
v 0.000000 -30.859434 101.171883
v 0.000000 -23.437531 94.921883
v 0.000000 -23.437466 -99.609413
v 0.000000 -34.765568 -101.171913
v 0.000000 -34.765553 -134.765594
v -21.875000 -21.875046 134.765594
v -21.875000 -21.875034 101.171898
v -16.406300 -16.406330 94.921898
v -16.406300 -16.406166 -99.609398
v -24.609400 -24.609365 -101.171913
v -24.609400 -24.609354 -134.765594
v -14.843800 -0.000046 141.406296
v -30.859400 -0.000044 134.765594
v -30.859400 -0.000032 101.171898
v -23.437500 -0.000030 94.921898
v -23.437500 0.000032 -99.609398
v -34.765598 0.000032 -101.171898
v -34.765598 0.000044 -134.765594
v -21.875000 21.874954 134.765594
v -21.875000 21.874966 101.171898
v -16.406300 16.406170 94.921898
v -16.406300 16.406334 -99.609398
v -24.609400 24.609434 -101.171883
v -24.609400 24.609446 -134.765594
v 0.000000 30.859354 134.765594
v 0.000000 30.859365 101.171913
v 0.000000 23.437469 94.921913
v 0.000000 23.437534 -99.609383
v 0.000000 34.765629 -101.171883
v 0.000000 34.765644 -134.765594
v 21.875000 21.874954 134.765594
v 21.875000 21.874966 101.171898
v 16.406300 16.406170 94.921898
v 16.406300 16.406334 -99.609398
v 24.609400 24.609434 -101.171883
v 24.609400 24.609446 -134.765594
v 30.859400 -0.000032 101.171898
vt 0.468800 0.187500
vt 0.437500 0.218800
vt 0.406300 0.187500
vt 0.484400 0.109400
vt 0.390600 0.109400
vt 0.437500 0.015600
vt 0.484400 0.109400
vt 0.390600 0.109400
vt 0.484400 0.109400
vt 0.390600 0.109400
vt 0.484400 0.109400
vt 0.390600 0.109400
vt 0.468800 0.187500
vt 0.437500 0.218800
vt 0.406300 0.187500
vt 0.484400 0.109400
vt 0.390600 0.109400
vt 0.484400 0.109400
vt 0.390600 0.109400
vt 0.484400 0.109400
vt 0.390600 0.109400
vt 0.484400 0.109400
vt 0.390600 0.109400
vt 0.390600 0.968800
vt 0.187500 0.968800
vt 0.156300 0.593800
vt 0.468800 0.593800
vt 0.156300 0.390600
vt 0.093800 0.953100
vt 0.031300 0.953100
vt 0.031300 0.062500
vt 0.093800 0.062500
vt 0.343800 0.031300
vt 0.343800 0.203100
vt 0.281300 0.203100
vt 0.281300 0.031300
vt 0.218800 0.203100
vt 0.218800 0.031300
vt 0.156300 0.203100
vt 0.156300 0.031300
vt 0.390600 0.968800
vt 0.187500 0.968800
vt 0.156300 0.593800
vt 0.468800 0.593800
vt 0.156300 0.390600
vt 0.093800 0.953100
vt 0.031300 0.953100
vt 0.031300 0.062500
vt 0.093800 0.062500
vt 0.343800 0.031300
vt 0.343800 0.203100
vt 0.281300 0.203100
vt 0.281300 0.031300
vt 0.218800 0.203100
vt 0.218800 0.031300
vt 0.156300 0.203100
vt 0.156300 0.031300
vt 0.390600 0.968800
vt 0.187500 0.968800
vt 0.156300 0.593800
vt 0.468800 0.593800
vt 0.156300 0.390600
vt 0.093800 0.953100
vt 0.031300 0.953100
vt 0.031300 0.062500
vt 0.093800 0.062500
vt 0.343800 0.031300
vt 0.343800 0.203100
vt 0.281300 0.203100
vt 0.281300 0.031300
vt 0.218800 0.203100
vt 0.218800 0.031300
vt 0.156300 0.203100
vt 0.156300 0.031300
vt 0.390600 0.968800
vt 0.187500 0.968800
vt 0.156300 0.593800
vt 0.468800 0.593800
vt 0.156300 0.390600
vt 0.093800 0.953100
vt 0.031300 0.953100
vt 0.031300 0.062500
vt 0.093800 0.062500
vt 0.343800 0.031300
vt 0.343800 0.203100
vt 0.281300 0.203100
vt 0.281300 0.031300
vt 0.218800 0.203100
vt 0.218800 0.031300
vt 0.156300 0.203100
vt 0.156300 0.031300
vt 0.390600 0.968800
vt 0.187500 0.968800
vt 0.156300 0.593800
vt 0.468800 0.593800
vt 0.156300 0.390600
vt 0.093800 0.953100
vt 0.031300 0.953100
vt 0.031300 0.062500
vt 0.093800 0.062500
vt 0.343800 0.031300
vt 0.343800 0.203100
vt 0.281300 0.203100
vt 0.281300 0.031300
vt 0.218800 0.203100
vt 0.218800 0.031300
vt 0.156300 0.203100
vt 0.156300 0.031300
vt 0.390600 0.968800
vt 0.187500 0.968800
vt 0.156300 0.593800
vt 0.468800 0.593800
vt 0.156300 0.390600
vt 0.093800 0.953100
vt 0.031300 0.953100
vt 0.031300 0.062500
vt 0.093800 0.062500
vt 0.343800 0.031300
vt 0.343800 0.203100
vt 0.281300 0.203100
vt 0.281300 0.031300
vt 0.218800 0.203100
vt 0.218800 0.031300
vt 0.156300 0.203100
vt 0.156300 0.031300
vt 0.390600 0.968800
vt 0.187500 0.968800
vt 0.156300 0.593800
vt 0.468800 0.593800
vt 0.156300 0.390600
vt 0.093800 0.953100
vt 0.031300 0.953100
vt 0.031300 0.062500
vt 0.093800 0.062500
vt 0.343800 0.031300
vt 0.343800 0.203100
vt 0.281300 0.203100
vt 0.281300 0.031300
vt 0.218800 0.203100
vt 0.218800 0.031300
vt 0.156300 0.203100
vt 0.156300 0.031300
vt 0.390600 0.968800
vt 0.187500 0.968800
vt 0.156300 0.593800
vt 0.468800 0.593800
vt 0.156300 0.390600
vt 0.093800 0.953100
vt 0.031300 0.953100
vt 0.031300 0.062500
vt 0.093800 0.062500
vt 0.343800 0.031300
vt 0.343800 0.203100
vt 0.281300 0.203100
vt 0.281300 0.031300
vt 0.218800 0.203100
vt 0.218800 0.031300
vt 0.156300 0.203100
vt 0.156300 0.031300
vt 0.390600 0.140600
vt 0.484400 0.140600
vt 0.390600 0.140600
vt 0.484400 0.140600
vt 0.468800 0.390600
vt 0.156300 0.250000
vt 0.468800 0.250000
vt 0.468800 0.390600
vt 0.156300 0.250000
vt 0.468800 0.250000
vt 0.468800 0.390600
vt 0.156300 0.250000
vt 0.468800 0.250000
vt 0.468800 0.390600
vt 0.156300 0.250000
vt 0.468800 0.250000
vt 0.468800 0.390600
vt 0.156300 0.250000
vt 0.468800 0.250000
vt 0.468800 0.390600
vt 0.156300 0.250000
vt 0.468800 0.250000
vt 0.468800 0.390600
vt 0.156300 0.250000
vt 0.468800 0.250000
vt 0.468800 0.390600
vt 0.156300 0.250000
vt 0.468800 0.250000
vn 0.0000 0.0000 1.0000
vn 0.8293 -0.3615 -0.4261
vn 0.3615 -0.8293 -0.4261
vn -0.3615 -0.8293 -0.4261
vn -0.8293 -0.3615 -0.4261
vn -0.8293 0.3615 -0.4261
vn -0.3615 0.8293 -0.4261
vn 0.3615 0.8293 -0.4261
vn 0.8293 0.3615 -0.4261
vn 0.3660 -0.1543 0.9177
vn 0.3655 -0.1546 0.9179
vn 0.3661 -0.1543 0.9177
vn 0.3708 -0.1523 0.9161
vn 0.9250 -0.3799 -0.0000
vn 0.9191 -0.3939 -0.0000
vn 0.1329 -0.0566 0.9895
vn 0.1320 -0.0566 0.9896
vn 0.1359 -0.0564 0.9891
vn 0.1364 -0.0563 0.9890
vn 0.9244 -0.3815 -0.0000
vn 0.0884 -0.0365 -0.9954
vn 0.0881 -0.0364 -0.9954
vn 0.0900 -0.0388 -0.9952
vn 0.0905 -0.0394 -0.9951
vn 0.1562 -0.3705 0.9156
vn 0.1568 -0.3706 0.9155
vn 0.1561 -0.3705 0.9156
vn 0.1513 -0.3685 0.9172
vn 0.3799 -0.9250 -0.0000
vn 0.3939 -0.9191 -0.0000
vn 0.0578 -0.1358 0.9891
vn 0.0585 -0.1364 0.9889
vn 0.0555 -0.1336 0.9895
vn 0.0551 -0.1334 0.9895
vn 0.3815 -0.9244 -0.0000
vn 0.0374 -0.0901 -0.9952
vn 0.0373 -0.0905 -0.9952
vn 0.0377 -0.0874 -0.9955
vn 0.0378 -0.0867 -0.9955
vn -0.1543 -0.3660 0.9177
vn -0.1546 -0.3655 0.9179
vn -0.1543 -0.3661 0.9177
vn -0.1523 -0.3708 0.9161
vn -0.3799 -0.9250 -0.0000
vn -0.3939 -0.9191 -0.0000
vn -0.0566 -0.1329 0.9895
vn -0.0566 -0.1320 0.9896
vn -0.0564 -0.1359 0.9891
vn -0.0563 -0.1364 0.9890
vn -0.3815 -0.9244 -0.0000
vn -0.0363 -0.0885 -0.9954
vn -0.0364 -0.0881 -0.9954
vn -0.0387 -0.0901 -0.9952
vn -0.0394 -0.0905 -0.9951
vn -0.3772 -0.1741 0.9096
vn -0.3685 -0.1513 0.9172
vn -0.9250 -0.3799 -0.0000
vn -0.9191 -0.3939 -0.0000
vn -0.1357 -0.0578 0.9891
vn -0.1364 -0.0585 0.9889
vn -0.1336 -0.0555 0.9895
vn -0.1334 -0.0551 0.9895
vn -0.9244 -0.3815 -0.0000
vn -0.0902 -0.0373 -0.9952
vn -0.0905 -0.0373 -0.9952
vn -0.0874 -0.0377 -0.9955
vn -0.0867 -0.0378 -0.9955
vn -0.3566 0.1646 0.9197
vn -0.3784 0.1554 0.9125
vn -0.9250 0.3799 0.0000
vn -0.9191 0.3939 0.0000
vn -0.1329 0.0566 0.9895
vn -0.1320 0.0566 0.9896
vn -0.1359 0.0564 0.9891
vn -0.1364 0.0563 0.9890
vn -0.9244 0.3815 0.0000
vn -0.0883 0.0364 -0.9954
vn -0.0881 0.0364 -0.9954
vn -0.0900 0.0388 -0.9952
vn -0.0905 0.0394 -0.9951
vn -0.1741 0.3772 0.9096
vn -0.1513 0.3685 0.9172
vn -0.3799 0.9250 0.0000
vn -0.3939 0.9191 0.0000
vn -0.0578 0.1358 0.9891
vn -0.0585 0.1364 0.9889
vn -0.0555 0.1336 0.9895
vn -0.0551 0.1334 0.9895
vn -0.3815 0.9244 0.0000
vn -0.0374 0.0901 -0.9952
vn -0.0373 0.0905 -0.9952
vn -0.0377 0.0874 -0.9955
vn -0.0378 0.0867 -0.9955
vn 0.1646 0.3566 0.9197
vn 0.1554 0.3784 0.9125
vn 0.3799 0.9250 0.0000
vn 0.3939 0.9191 0.0000
vn 0.0566 0.1329 0.9895
vn 0.0566 0.1320 0.9896
vn 0.0564 0.1359 0.9891
vn 0.0563 0.1364 0.9890
vn 0.3815 0.9244 0.0000
vn 0.0365 0.0884 -0.9954
vn 0.0364 0.0881 -0.9954
vn 0.0388 0.0900 -0.9952
vn 0.0394 0.0905 -0.9951
vn 0.3705 0.1562 0.9156
vn 0.3706 0.1568 0.9155
vn 0.3705 0.1561 0.9156
vn 0.3685 0.1513 0.9172
vn 0.9250 0.3799 0.0000
vn 0.9191 0.3939 0.0000
vn 0.1357 0.0578 0.9891
vn 0.1364 0.0585 0.9889
vn 0.1336 0.0555 0.9895
vn 0.1334 0.0551 0.9895
vn 0.9244 0.3815 0.0000
vn 0.0902 0.0373 -0.9952
vn 0.0905 0.0373 -0.9952
vn 0.0874 0.0377 -0.9955
vn 0.0867 0.0378 -0.9955
vn 0.6094 -0.2503 -0.7523
vn 0.6209 -0.2661 -0.7373
vn 0.2558 -0.6227 -0.7395
vn 0.2586 -0.6034 -0.7543
vn -0.2503 -0.6094 -0.7523
vn -0.2661 -0.6209 -0.7373
vn -0.6227 -0.2558 -0.7395
vn -0.6034 -0.2586 -0.7543
vn -0.6094 0.2503 -0.7523
vn -0.6209 0.2661 -0.7373
vn -0.2558 0.6227 -0.7395
vn -0.2586 0.6034 -0.7543
vn 0.2503 0.6094 -0.7523
vn 0.2661 0.6209 -0.7373
vn 0.6227 0.2558 -0.7395
vn 0.6034 0.2586 -0.7543
usemtl Z-Saber
s 1
f 1/1/1 2/2/1 3/3/1
f 4/4/2 5/5/2 6/6/2
f 5/7/3 7/8/3 6/6/3
f 7/9/4 8/10/4 6/6/4
f 8/11/5 9/12/5 6/6/5
f 10/13/1 11/14/1 12/15/1
f 9/16/6 13/17/6 6/6/6
f 13/18/7 14/19/7 6/6/7
f 14/20/8 15/21/8 6/6/8
f 15/22/9 4/23/9 6/6/9
f 16/24/10 3/25/11 17/26/12
f 16/24/10 17/26/12 18/27/13
f 18/27/14 17/26/14 19/28/14
f 20/29/15 21/30/15 22/31/15
f 20/29/15 22/31/15 23/32/15
f 23/33/16 22/34/17 24/35/18
f 23/33/16 24/35/18 25/36/19
f 25/36/20 24/35/20 26/37/20
f 25/36/20 26/37/20 27/38/20
f 27/38/21 26/37/22 5/39/23
f 27/38/21 5/39/23 4/40/24
f 3/41/25 2/42/26 28/43/27
f 3/41/25 28/43/27 17/44/28
f 17/44/29 28/43/29 29/45/29
f 21/46/30 30/47/30 31/48/30
f 21/46/30 31/48/30 22/49/30
f 22/50/31 31/51/32 32/52/33
f 22/50/31 32/52/33 24/53/34
f 24/53/35 32/52/35 33/54/35
f 24/53/35 33/54/35 26/55/35
f 26/55/36 33/54/37 7/56/38
f 26/55/36 7/56/38 5/57/39
f 2/58/40 1/59/41 34/60/42
f 2/58/40 34/60/42 28/61/43
f 28/61/44 34/60/44 35/62/44
f 30/63/45 36/64/45 37/65/45
f 30/63/45 37/65/45 31/66/45
f 31/67/46 37/68/47 38/69/48
f 31/67/46 38/69/48 32/70/49
f 32/70/50 38/69/50 39/71/50
f 32/70/50 39/71/50 33/72/50
f 33/72/51 39/71/52 8/73/53
f 33/72/51 8/73/53 7/74/54
f 1/75/55 40/76/55 41/77/55
f 1/75/56 41/77/56 34/78/56
f 34/78/57 41/77/57 42/79/57
f 36/80/58 43/81/58 44/82/58
f 36/80/58 44/82/58 37/83/58
f 37/84/59 44/85/60 45/86/61
f 37/84/59 45/86/61 38/87/62
f 38/87/63 45/86/63 46/88/63
f 38/87/63 46/88/63 39/89/63
f 39/89/64 46/88/65 9/90/66
f 39/89/64 9/90/66 8/91/67
f 40/92/68 12/93/68 47/94/68
f 40/92/69 47/94/69 41/95/69
f 41/95/70 47/94/70 48/96/70
f 43/97/71 49/98/71 50/99/71
f 43/97/71 50/99/71 44/100/71
f 44/101/72 50/102/73 51/103/74
f 44/101/72 51/103/74 45/104/75
f 45/104/76 51/103/76 52/105/76
f 45/104/76 52/105/76 46/106/76
f 46/106/77 52/105/78 13/107/79
f 46/106/77 13/107/79 9/108/80
f 12/109/81 11/110/81 53/111/81
f 12/109/82 53/111/82 47/112/82
f 47/112/83 53/111/83 54/113/83
f 49/114/84 55/115/84 56/116/84
f 49/114/84 56/116/84 50/117/84
f 50/118/85 56/119/86 57/120/87
f 50/118/85 57/120/87 51/121/88
f 51/121/89 57/120/89 58/122/89
f 51/121/89 58/122/89 52/123/89
f 52/123/90 58/122/91 14/124/92
f 52/123/90 14/124/92 13/125/93
f 11/126/94 10/127/94 59/128/94
f 11/126/95 59/128/95 53/129/95
f 53/129/96 59/128/96 60/130/96
f 55/131/97 61/132/97 62/133/97
f 55/131/97 62/133/97 56/134/97
f 56/135/98 62/136/99 63/137/100
f 56/135/98 63/137/100 57/138/101
f 57/138/102 63/137/102 64/139/102
f 57/138/102 64/139/102 58/140/102
f 58/140/103 64/139/104 15/141/105
f 58/140/103 15/141/105 14/142/106
f 10/143/107 16/144/108 18/145/109
f 10/143/107 18/145/109 59/146/110
f 59/146/111 18/145/111 65/147/111
f 61/148/112 20/149/112 23/150/112
f 61/148/112 23/150/112 62/151/112
f 62/152/113 23/153/114 25/154/115
f 62/152/113 25/154/115 63/155/116
f 63/155/117 25/154/117 27/156/117
f 63/155/117 27/156/117 64/157/117
f 64/157/118 27/156/119 4/158/120
f 64/157/118 4/158/120 15/159/121
f 12/15/1 40/160/1 16/161/1
f 12/15/1 16/161/1 10/13/1
f 3/3/1 16/162/1 40/163/1
f 3/3/1 40/163/1 1/1/1
f 18/27/14 19/28/14 65/164/14
f 65/164/122 19/28/122 21/165/122
f 65/164/123 21/165/123 20/166/123
f 17/44/29 29/45/29 19/167/29
f 19/167/124 29/45/124 30/168/124
f 19/167/125 30/168/125 21/169/125
f 28/61/44 35/62/44 29/170/44
f 29/170/126 35/62/126 36/171/126
f 29/170/127 36/171/127 30/172/127
f 34/78/57 42/79/57 35/173/57
f 35/173/128 42/79/128 43/174/128
f 35/173/129 43/174/129 36/175/129
f 41/95/70 48/96/70 42/176/70
f 42/176/130 48/96/130 49/177/130
f 42/176/131 49/177/131 43/178/131
f 47/112/83 54/113/83 48/179/83
f 48/179/132 54/113/132 55/180/132
f 48/179/133 55/180/133 49/181/133
f 53/129/96 60/130/96 54/182/96
f 54/182/134 60/130/134 61/183/134
f 54/182/135 61/183/135 55/184/135
f 59/146/111 65/147/111 60/185/111
f 60/185/136 65/147/136 20/186/136
f 60/185/137 20/186/137 61/187/137
o Mesh_0152
v 42.968800 42.968639 191.406296
v 0.000000 60.937439 191.406326
v 0.000000 -0.000058 180.859406
v -42.968800 42.968632 203.906296
v -60.937500 -0.000066 203.906296
v 0.000000 -0.000060 183.984406
v 0.000000 60.937431 203.906326
v -42.968800 -42.968861 191.406296
v 0.000000 -60.937561 191.406265
v 0.000000 132.421814 237.109436
v -42.968800 42.968639 191.406296
v 0.000000 -132.421997 237.109375
v 42.968800 -42.968861 191.406296
v 93.750000 93.749924 237.109436
v -93.750000 93.749924 237.109436
v -132.421906 -0.000078 237.109406
v -60.937500 -0.000062 191.406296
v 93.750000 -93.750092 282.031250
v 60.937500 -0.000066 203.906296
v 42.968800 -42.968868 203.906296
v -132.421906 -0.000092 282.031311
v -42.968800 -42.968868 203.906296
v 132.421906 -0.000092 282.031311
v 93.750000 93.749908 282.031372
v 42.968800 42.968632 203.906296
v -93.750000 -93.750092 282.031250
v 0.000000 -132.421997 282.031250
v 0.000000 -60.937569 203.906265
v -93.750000 93.749908 282.031372
v 0.000000 132.421814 282.031372
v 93.750000 -93.750076 237.109375
v 132.421906 -0.000078 237.109406
v 60.937500 -0.000062 191.406296
v -93.750000 -93.750076 237.109375
vt 0.834900 0.176500
vt 0.982900 0.239500
vt 0.981600 0.023100
vt 0.834900 0.176500
vt 0.778800 0.023100
vt 0.981600 0.023100
vt 0.982900 0.239500
vt 0.834900 0.176500
vt 0.982900 0.238400
vt 0.982900 0.490700
vt 0.834900 0.176500
vt 0.982900 0.490800
vt 0.834900 0.176500
vt 0.662200 0.355500
vt 0.662200 0.355500
vt 0.532300 0.023100
vt 0.778800 0.023100
vt 0.662200 0.355500
vt 0.778800 0.023100
vt 0.834900 0.176500
vt 0.532300 0.023100
vt 0.834900 0.176500
vt 0.532300 0.023100
vt 0.662200 0.355500
vt 0.834900 0.176500
vt 0.662200 0.355500
vt 0.982900 0.490800
vt 0.982900 0.238400
vt 0.662200 0.355500
vt 0.982900 0.490700
vt 0.662200 0.355500
vt 0.532300 0.023100
vt 0.778800 0.023100
vt 0.662200 0.355500
vn -0.0711 -0.1701 0.9829
vn 0.3081 -0.1289 0.9426
vn 0.1289 -0.3081 0.9426
vn 0.0711 0.1701 0.9829
vn 0.2193 -0.5253 0.8221
vn 0.2197 -0.5254 0.8220
vn 0.2198 -0.5255 0.8219
vn -0.2193 0.5253 0.8222
vn -0.2196 0.5253 0.8221
vn -0.2198 0.5255 0.8219
vn -0.2184 -0.5233 0.8237
vn -0.2169 -0.5258 0.8225
vn -0.2186 -0.5231 0.8238
vn -0.2187 -0.5229 0.8239
vn 0.5233 -0.2184 0.8237
vn 0.5258 -0.2169 0.8225
vn 0.5231 -0.2186 0.8238
vn -0.7033 0.2934 0.6475
vn -0.7043 0.2926 0.6469
vn -0.7028 0.2939 0.6478
vn 0.7049 0.2941 0.6454
vn 0.7049 0.2928 0.6460
vn 0.7050 0.2948 0.6451
vn -0.7049 -0.2941 0.6454
vn -0.7048 -0.2907 0.6471
vn -0.7049 -0.2928 0.6460
vn 0.2934 0.7034 0.6475
vn 0.2911 0.7058 0.6458
vn 0.2926 0.7043 0.6469
vn 0.7034 -0.2934 0.6475
vn 0.7058 -0.2911 0.6458
vn 0.7043 -0.2926 0.6469
vn 0.7028 -0.2939 0.6478
vn 0.2941 -0.7049 0.6454
vn 0.2907 -0.7048 0.6471
vn 0.2928 -0.7049 0.6460
vn 0.2948 -0.7050 0.6451
vn -0.5233 0.2183 0.8237
vn -0.5258 0.2169 0.8225
vn -0.5231 0.2183 0.8239
vn 0.2184 0.5233 0.8237
vn 0.2169 0.5258 0.8225
vn 0.2186 0.5231 0.8238
vn 0.2187 0.5229 0.8239
vn 0.0711 -0.1701 0.9829
vn 0.1701 -0.0711 0.9829
vn 0.1701 0.0711 0.9829
vn 0.5253 0.2196 0.8221
vn 0.5255 0.2198 0.8219
vn 0.5253 0.2193 0.8222
vn 0.5246 0.2164 0.8234
vn -0.0711 0.1701 0.9829
vn -0.1701 0.0711 0.9829
vn -0.1701 -0.0711 0.9829
vn -0.5254 -0.2197 0.8220
vn -0.5255 -0.2198 0.8219
vn -0.5253 -0.2193 0.8222
vn -0.5246 -0.2164 0.8234
vn -0.3081 0.1289 0.9426
vn -0.3081 -0.1289 0.9426
vn -0.1289 -0.3081 0.9426
vn -0.2926 -0.7043 0.6469
vn -0.2939 -0.7028 0.6478
vn -0.2934 -0.7033 0.6475
vn -0.2911 -0.7058 0.6458
vn 0.3081 0.1289 0.9426
vn 0.1289 0.3081 0.9426
vn -0.1289 0.3081 0.9426
vn -0.2928 0.7049 0.6460
vn -0.2948 0.7050 0.6451
vn -0.2941 0.7049 0.6454
vn -0.2907 0.7048 0.6471
vn 0.2164 -0.5246 0.8234
vn 0.5229 -0.2187 0.8239
vn -0.2164 0.5246 0.8234
vn -0.5229 0.2186 0.8239
vn -0.7058 0.2911 0.6458
vn -0.7050 -0.2948 0.6451
vn 0.7048 0.2907 0.6471
vn 0.2939 0.7028 0.6478
usemtl Z-Saber
s 1
f 66/188/138 67/189/138 68/190/138
f 69/191/139 70/192/139 71/193/139
f 72/194/140 69/191/140 71/193/140
f 73/195/141 74/196/141 68/190/141
f 75/197/142 76/198/143 67/189/144
f 77/199/145 78/200/146 74/196/147
f 79/201/148 75/197/149 67/189/150
f 79/201/148 67/189/150 66/188/151
f 80/202/152 81/203/153 82/204/154
f 83/205/155 84/206/156 85/207/157
f 86/208/158 87/209/159 70/192/160
f 88/210/161 89/211/162 90/212/163
f 91/213/164 92/214/165 93/215/166
f 94/216/167 86/208/168 70/192/169
f 94/216/167 70/192/169 69/191/170
f 95/217/171 94/216/172 69/191/173
f 95/217/171 69/191/173 72/194/174
f 96/218/175 97/219/176 98/220/177
f 99/221/178 77/199/179 74/196/180
f 99/221/178 74/196/180 73/195/181
f 67/189/182 76/198/182 68/190/182
f 68/190/183 76/198/183 82/204/183
f 68/190/184 82/204/184 73/195/184
f 73/195/185 82/204/186 81/203/187
f 73/195/185 81/203/187 99/221/188
f 74/196/189 78/200/189 68/190/189
f 68/190/190 78/200/190 98/220/190
f 68/190/191 98/220/191 66/188/191
f 66/188/192 98/220/193 97/219/194
f 66/188/192 97/219/194 79/201/195
f 85/207/196 84/206/196 71/193/196
f 71/193/197 84/206/197 90/212/197
f 71/193/198 90/212/198 72/194/198
f 72/194/199 90/212/200 89/211/201
f 72/194/199 89/211/201 95/217/202
f 70/192/203 87/209/203 71/193/203
f 71/193/204 87/209/204 93/215/204
f 71/193/205 93/215/205 85/207/205
f 85/207/206 93/215/207 92/214/208
f 85/207/206 92/214/208 83/205/209
f 75/197/142 80/202/210 76/198/143
f 76/198/211 80/202/152 82/204/154
f 77/199/145 96/218/212 78/200/146
f 78/200/213 96/218/175 98/220/177
f 83/205/155 88/210/214 84/206/156
f 84/206/215 88/210/161 90/212/163
f 86/208/158 91/213/216 87/209/159
f 87/209/217 91/213/164 93/215/166
o Mesh_0153
v 0.000000 -0.000050 155.859406
v 0.000000 -0.000544 1362.109375
v 0.000000 -223.438065 1362.109375
v 0.000000 -223.437561 155.859344
v -155.468796 157.812439 155.859467
v 155.468796 -157.813065 1362.109375
v 155.468796 -157.812561 155.859344
v -219.921906 -0.000050 155.859406
v 219.921906 -0.000544 1362.109375
v 219.921906 -0.000050 155.859406
v 155.468796 157.812439 155.859467
v 155.468796 157.811935 1362.109375
v 0.000000 223.437439 155.859467
v 0.000000 223.436935 1362.109375
v -155.468796 157.811935 1362.109375
v -219.921906 -0.000544 1362.109375
v -155.468796 -157.813065 1362.109375
v -155.468796 -157.812561 155.859344
vt 0.988000 0.501700
vt 0.986600 0.989700
vt 0.508900 0.988900
vt 0.509900 0.501700
vt 0.509900 0.501700
vt 0.508900 0.988900
vt 0.509900 0.501700
vt 0.509900 0.501700
vt 0.508900 0.988900
vt 0.509900 0.501700
vt 0.509900 0.501700
vt 0.508900 0.988900
vt 0.509900 0.501700
vt 0.508900 0.988900
vt 0.508900 0.988900
vt 0.508900 0.988900
vt 0.508900 0.988900
vt 0.509900 0.501700
vn 1.0000 0.0000 0.0000
vn 0.7124 0.7018 0.0000
vn 0.0000 1.0000 0.0000
vn 0.7124 -0.7018 -0.0000
usemtl Z-Saber
s 1
f 100/222/218 101/223/218 102/224/218
f 100/222/218 102/224/218 103/225/218
f 104/226/219 101/223/219 100/222/219
f 100/222/219 101/223/219 105/227/219
f 100/222/219 105/227/219 106/228/219
f 107/229/220 101/223/220 100/222/220
f 100/222/220 101/223/220 108/230/220
f 100/222/220 108/230/220 109/231/220
f 110/232/221 111/233/221 101/223/221
f 112/234/218 113/235/218 101/223/218
f 104/226/219 114/236/219 101/223/219
f 107/229/220 115/237/220 101/223/220
f 110/232/221 101/223/221 100/222/221
f 100/222/221 101/223/221 116/238/221
f 100/222/221 116/238/221 117/239/221
f 112/234/218 101/223/218 100/222/218
